<?xml version="1.0" encoding="utf-8"?>
<!-- Generator: Adobe Illustrator 17.1.0, SVG Export Plug-In . SVG Version: 6.00 Build 0)  -->
<!DOCTYPE svg PUBLIC "-//W3C//DTD SVG 1.1//EN" "http://www.w3.org/Graphics/SVG/1.1/DTD/svg11.dtd">
<svg version="1.1" id="Layer_1" xmlns="http://www.w3.org/2000/svg" xmlns:xlink="http://www.w3.org/1999/xlink" x="0px" y="0px"
	 viewBox="0 0 40 40" enable-background="new 0 0 40 40" xml:space="preserve">
<g opacity="0.8">
	<path d="M0,8.1v-2c0-0.7,0.5-1.3,1.2-1.4c6.2-0.9,12.5-1.3,18.7-1.3s12.6,0.4,18.7,1.3c0.7,0.1,1.2,0.7,1.2,1.4v2
		c-0.1,0.5-0.5,1.3-1.6,2.4L23.1,21.9c-0.8,0.7-2,1-3.2,1s-2.4-0.3-3.2-1L1.6,10.4C0.5,9.4,0.1,8.6,0,8.1z M39.9,14.9v19.9
		c0,0.7-0.5,1.3-1.2,1.4c-6.2,0.9-12.5,1.3-18.8,1.3S7.4,37.1,1.2,36.2C0.5,36.1,0,35.5,0,34.8V14.9l14.1,10.8
		c1.6,1.2,3.7,1.8,5.8,1.8s4.2-0.5,5.8-1.8L39.9,14.9z"/>
</g>
</svg>
