<?xml version="1.0" encoding="utf-8"?>
<!-- Generator: Adobe Illustrator 17.1.0, SVG Export Plug-In . SVG Version: 6.00 Build 0)  -->
<!DOCTYPE svg PUBLIC "-//W3C//DTD SVG 1.1//EN" "http://www.w3.org/Graphics/SVG/1.1/DTD/svg11.dtd">
<svg version="1.1" id="Layer_1" xmlns="http://www.w3.org/2000/svg" xmlns:xlink="http://www.w3.org/1999/xlink" x="0px" y="0px"
	 viewBox="0 0 40 34" enable-background="new 0 0 40 34" xml:space="preserve">
<g>
</g>
<path opacity="0.8" d="M39.6,4.5c-0.1-0.1-0.2-0.2-0.4-0.2c0,0,0,0-0.1,0c-0.1,0-0.3,0-0.6,0.1c-0.2,0-0.5,0.1-0.9,0.2l-0.5,0.1
	l0.2-0.5c0.1-0.3,0.2-0.6,0.3-0.9c0.2-0.5,0.3-1.1,0.4-1.7c0-0.2,0-0.4-0.2-0.5c-0.1-0.1-0.2-0.1-0.3-0.1c-0.1,0-0.2,0-0.2,0.1
	c-1.2,0.7-2.2,1.1-3,1.4c-0.7,0.2-1.3,0.4-2,0.5l-0.1,0L32.1,3c-0.7-0.7-1.6-1.2-2.5-1.6c-1-0.4-2-0.6-3.2-0.6c-1.3,0-2.7,0.3-4,0.8
	c-0.6,0.2-1.2,0.6-1.8,1.1c-0.8,0.7-1.5,1.7-2,2.7C18.3,6.5,18,7.7,18,8.8c0,0.1,0,0.2,0,0.4l0,0.4l-0.4-0.1
	c-1.3-0.4-3.6-1.1-5.9-2.1C10.7,6.8,9.5,6,8.3,5C7,3.9,5.8,2.5,5,1.3C4.9,1.2,4.7,1,4.6,1c0,0,0,0-0.1,0C4.4,1,4.3,1.1,4.2,1.2
	C3.8,1.6,3.5,2,3.2,2.3c-0.4,0.5-0.7,1-0.9,1.5C2.2,4.3,2,4.9,2,5.6c0,0.5-0.1,1-0.1,1.5c0,1.3,0.2,2.4,0.6,3.4l0.2,0.3l-0.4,0
	c-0.2,0-0.4,0.2-0.4,0.5c0,0.3,0,0.6,0,0.9c0,2.4,0.7,4.5,2,6c0.1,0.1,0.2,0.2,0.4,0.4l-0.1,0.1c0,0.1-0.2,0.1-0.2,0.2v0.1
	c0,0.9,0.4,1.8,0.8,2.6c0.6,1.1,1.6,2.1,2.8,2.8C8,24.6,8.5,24.8,9,25l0.7,0.3L9,25.5C7.3,26,5.7,26.3,4,26.3c-0.6,0-1.1,0-1.7-0.1
	l-0.3,0c-0.4,0-0.8-0.1-1.1-0.1c-0.1,0-0.2-0.1-0.3-0.1h0c-0.2,0-0.3,0.2-0.4,0.3c-0.1,0.1-0.1,0.3-0.1,0.5c0.2,0.9,0.7,1.7,1.5,2.5
	c1.1,1.1,2.8,2.1,4.8,2.7c2.1,0.7,4.4,1.1,6.8,1.1c4,0,8-1,11.5-2.9c3.4-1.9,6.4-4.9,8.1-8.5c0.7-1.4,1.3-2.9,1.8-4.4
	c0.6-1.9,0.9-3.6,0.9-5c0-0.5,0-1.1-0.1-1.5l0-0.2l0.1-0.1c0.5-0.3,0.8-0.6,1.2-0.9c0.7-0.6,1.2-1.2,1.7-2c0.4-0.7,0.8-1.4,1.2-2.4
	C39.8,4.9,39.7,4.7,39.6,4.5z"/>
</svg>
