<?xml version="1.0" encoding="UTF-8" standalone="no"?>
<svg width="621px" height="281px" viewBox="0 0 621 281" version="1.1" xmlns="http://www.w3.org/2000/svg" xmlns:xlink="http://www.w3.org/1999/xlink" xmlns:sketch="http://www.bohemiancoding.com/sketch/ns">
    <!-- Generator: Sketch 3.2.2 (9983) - http://www.bohemiancoding.com/sketch -->
    <title>iterate</title>
    <desc>Created with Sketch.</desc>
    <defs></defs>
    <g id="Page-1" stroke="none" stroke-width="1" fill="none" fill-rule="evenodd" sketch:type="MSPage">
        <g id="Desktop" sketch:type="MSArtboardGroup" transform="translate(-202.000000, -1244.000000)">
            <g id="Iteration-Model" sketch:type="MSLayerGroup" transform="translate(202.000000, 1244.000000)">
                <g id="Assumption-+-Hypothesis-+-+" transform="translate(114.000000, 2.000000)" sketch:type="MSShapeGroup">
                    <g id="Assumption-+-Hypothesis">
                        <g id="Assumption">
                            <rect id="Rectangle-5" stroke="#000000" stroke-width="2" x="0" y="0" width="180" height="45" rx="3"></rect>
                            <path d="M49.384,29 L44.758,16.994 L41.554,16.994 L36.928,29 L39.826,29 L40.582,26.966 L45.73,26.966 L46.486,29 L49.384,29 Z M45.028,24.716 L41.284,24.716 L43.156,19.55 L45.028,24.716 Z M53.578,29.216 C55.99,29.216 57.358,28.046 57.358,26.444 C57.358,22.934 52.192,24.014 52.192,22.736 C52.192,22.25 52.732,21.89 53.56,21.89 C54.622,21.89 55.612,22.358 56.134,22.898 L57.052,21.278 C56.188,20.594 55.018,20.09 53.56,20.09 C51.256,20.09 49.996,21.368 49.996,22.826 C49.996,26.246 55.144,25.076 55.144,26.498 C55.144,27.038 54.676,27.416 53.686,27.416 C52.606,27.416 51.328,26.822 50.68,26.21 L49.69,27.866 C50.608,28.712 52.066,29.216 53.578,29.216 L53.578,29.216 Z M62.164,29.216 C64.576,29.216 65.944,28.046 65.944,26.444 C65.944,22.934 60.778,24.014 60.778,22.736 C60.778,22.25 61.318,21.89 62.146,21.89 C63.208,21.89 64.198,22.358 64.72,22.898 L65.638,21.278 C64.774,20.594 63.604,20.09 62.146,20.09 C59.842,20.09 58.582,21.368 58.582,22.826 C58.582,26.246 63.73,25.076 63.73,26.498 C63.73,27.038 63.262,27.416 62.272,27.416 C61.192,27.416 59.914,26.822 59.266,26.21 L58.276,27.866 C59.194,28.712 60.652,29.216 62.164,29.216 L62.164,29.216 Z M75.772,29 L75.772,20.306 L73.486,20.306 L73.486,26.192 C73.09,26.696 72.388,27.182 71.506,27.182 C70.534,27.182 69.904,26.786 69.904,25.58 L69.904,20.306 L67.618,20.306 L67.618,26.48 C67.618,28.172 68.518,29.216 70.426,29.216 C71.848,29.216 72.892,28.55 73.486,27.902 L73.486,29 L75.772,29 Z M91.126,29 L91.126,22.718 C91.126,20.936 90.172,20.09 88.57,20.09 C87.238,20.09 86.086,20.882 85.582,21.656 C85.276,20.684 84.448,20.09 83.17,20.09 C81.838,20.09 80.704,20.918 80.326,21.422 L80.326,20.306 L78.04,20.306 L78.04,29 L80.326,29 L80.326,23.132 C80.668,22.664 81.334,22.124 82.126,22.124 C83.062,22.124 83.422,22.7 83.422,23.51 L83.422,29 L85.726,29 L85.726,23.132 C86.05,22.664 86.716,22.124 87.526,22.124 C88.462,22.124 88.822,22.7 88.822,23.51 L88.822,29 L91.126,29 Z M98.362,29.216 C100.594,29.216 102.214,27.542 102.214,24.644 C102.214,21.746 100.594,20.09 98.362,20.09 C97.3,20.09 96.346,20.558 95.68,21.404 L95.68,20.306 L93.394,20.306 L93.394,32.312 L95.68,32.312 L95.68,27.884 C96.4,28.784 97.336,29.216 98.362,29.216 L98.362,29.216 Z M97.642,27.182 C96.904,27.182 96.058,26.732 95.68,26.174 L95.68,23.114 C96.076,22.538 96.904,22.124 97.642,22.124 C98.956,22.124 99.856,23.15 99.856,24.644 C99.856,26.156 98.956,27.182 97.642,27.182 L97.642,27.182 Z M106.804,29.216 C107.758,29.216 108.37,28.964 108.712,28.658 L108.226,26.912 C108.1,27.056 107.776,27.182 107.434,27.182 C106.93,27.182 106.642,26.768 106.642,26.21 L106.642,22.304 L108.406,22.304 L108.406,20.306 L106.642,20.306 L106.642,17.93 L104.356,17.93 L104.356,20.306 L102.916,20.306 L102.916,22.304 L104.356,22.304 L104.356,26.822 C104.356,28.388 105.202,29.216 106.804,29.216 L106.804,29.216 Z M111.106,19.37 C111.862,19.37 112.474,18.758 112.474,18.002 C112.474,17.246 111.862,16.652 111.106,16.652 C110.368,16.652 109.756,17.246 109.756,18.002 C109.756,18.758 110.368,19.37 111.106,19.37 L111.106,19.37 Z M112.258,29 L112.258,20.306 L109.972,20.306 L109.972,29 L112.258,29 Z M118.558,29.216 C121.438,29.216 123.166,27.11 123.166,24.644 C123.166,22.178 121.438,20.09 118.558,20.09 C115.696,20.09 113.968,22.178 113.968,24.644 C113.968,27.11 115.696,29.216 118.558,29.216 L118.558,29.216 Z M118.558,27.182 C117.136,27.182 116.344,26.012 116.344,24.644 C116.344,23.294 117.136,22.124 118.558,22.124 C119.998,22.124 120.79,23.294 120.79,24.644 C120.79,26.012 119.998,27.182 118.558,27.182 L118.558,27.182 Z M133.048,29 L133.048,22.862 C133.048,21.17 132.13,20.09 130.204,20.09 C128.8,20.09 127.72,20.774 127.162,21.422 L127.162,20.306 L124.876,20.306 L124.876,29 L127.162,29 L127.162,23.132 C127.558,22.628 128.242,22.124 129.142,22.124 C130.114,22.124 130.744,22.538 130.744,23.744 L130.744,29 L133.048,29 Z M138.43,29.216 C140.842,29.216 142.21,28.046 142.21,26.444 C142.21,22.934 137.044,24.014 137.044,22.736 C137.044,22.25 137.584,21.89 138.412,21.89 C139.474,21.89 140.464,22.358 140.986,22.898 L141.904,21.278 C141.04,20.594 139.87,20.09 138.412,20.09 C136.108,20.09 134.848,21.368 134.848,22.826 C134.848,26.246 139.996,25.076 139.996,26.498 C139.996,27.038 139.528,27.416 138.538,27.416 C137.458,27.416 136.18,26.822 135.532,26.21 L134.542,27.866 C135.46,28.712 136.918,29.216 138.43,29.216 L138.43,29.216 Z" id="Assumptions" fill="#000000"></path>
                        </g>
                        <g id="Hypothesis" transform="translate(218.000000, 0.000000)">
                            <rect id="Rectangle-5" stroke="#000000" stroke-width="2" x="0" y="0" width="180" height="45" rx="3"></rect>
                            <path d="M56.268,29 L56.268,16.994 L53.694,16.994 L53.694,21.71 L48.024,21.71 L48.024,16.994 L45.468,16.994 L45.468,29 L48.024,29 L48.024,23.942 L53.694,23.942 L53.694,29 L56.268,29 Z M58.284,32.384 C58.554,32.474 59.148,32.528 59.4,32.528 C60.894,32.492 62.046,32.06 62.694,30.422 L66.78,20.306 L64.332,20.306 L62.046,26.354 L59.778,20.306 L57.33,20.306 L60.858,29.108 L60.534,29.864 C60.318,30.332 59.922,30.494 59.328,30.494 C59.112,30.494 58.806,30.44 58.608,30.35 L58.284,32.384 Z M72.774,29.216 C75.006,29.216 76.626,27.542 76.626,24.644 C76.626,21.746 75.006,20.09 72.774,20.09 C71.712,20.09 70.758,20.558 70.092,21.404 L70.092,20.306 L67.806,20.306 L67.806,32.312 L70.092,32.312 L70.092,27.884 C70.812,28.784 71.748,29.216 72.774,29.216 L72.774,29.216 Z M72.054,27.182 C71.316,27.182 70.47,26.732 70.092,26.174 L70.092,23.114 C70.488,22.538 71.316,22.124 72.054,22.124 C73.368,22.124 74.268,23.15 74.268,24.644 C74.268,26.156 73.368,27.182 72.054,27.182 L72.054,27.182 Z M82.332,29.216 C85.212,29.216 86.94,27.11 86.94,24.644 C86.94,22.178 85.212,20.09 82.332,20.09 C79.47,20.09 77.742,22.178 77.742,24.644 C77.742,27.11 79.47,29.216 82.332,29.216 L82.332,29.216 Z M82.332,27.182 C80.91,27.182 80.118,26.012 80.118,24.644 C80.118,23.294 80.91,22.124 82.332,22.124 C83.772,22.124 84.564,23.294 84.564,24.644 C84.564,26.012 83.772,27.182 82.332,27.182 L82.332,27.182 Z M91.566,29.216 C92.52,29.216 93.132,28.964 93.474,28.658 L92.988,26.912 C92.862,27.056 92.538,27.182 92.196,27.182 C91.692,27.182 91.404,26.768 91.404,26.21 L91.404,22.304 L93.168,22.304 L93.168,20.306 L91.404,20.306 L91.404,17.93 L89.118,17.93 L89.118,20.306 L87.678,20.306 L87.678,22.304 L89.118,22.304 L89.118,26.822 C89.118,28.388 89.964,29.216 91.566,29.216 L91.566,29.216 Z M102.906,29 L102.906,22.826 C102.906,21.134 101.988,20.09 100.08,20.09 C98.658,20.09 97.596,20.774 97.038,21.422 L97.038,16.994 L94.734,16.994 L94.734,29 L97.038,29 L97.038,23.132 C97.416,22.628 98.118,22.124 99.018,22.124 C99.99,22.124 100.62,22.502 100.62,23.708 L100.62,29 L102.906,29 Z M109.26,29.216 C110.61,29.216 111.978,28.802 112.842,28.01 L111.816,26.498 C111.258,27.038 110.25,27.344 109.512,27.344 C108.036,27.344 107.172,26.462 107.01,25.4 L113.472,25.4 L113.472,24.86 C113.472,22.034 111.726,20.09 109.116,20.09 C106.488,20.09 104.616,22.124 104.616,24.644 C104.616,27.434 106.614,29.216 109.26,29.216 L109.26,29.216 Z M111.276,23.816 L106.992,23.816 C107.082,22.952 107.694,21.962 109.116,21.962 C110.628,21.962 111.204,22.988 111.276,23.816 L111.276,23.816 Z M118.26,29.216 C120.672,29.216 122.04,28.046 122.04,26.444 C122.04,22.934 116.874,24.014 116.874,22.736 C116.874,22.25 117.414,21.89 118.242,21.89 C119.304,21.89 120.294,22.358 120.816,22.898 L121.734,21.278 C120.87,20.594 119.7,20.09 118.242,20.09 C115.938,20.09 114.678,21.368 114.678,22.826 C114.678,26.246 119.826,25.076 119.826,26.498 C119.826,27.038 119.358,27.416 118.368,27.416 C117.288,27.416 116.01,26.822 115.362,26.21 L114.372,27.866 C115.29,28.712 116.748,29.216 118.26,29.216 L118.26,29.216 Z M124.848,19.37 C125.604,19.37 126.216,18.758 126.216,18.002 C126.216,17.246 125.604,16.652 124.848,16.652 C124.11,16.652 123.498,17.246 123.498,18.002 C123.498,18.758 124.11,19.37 124.848,19.37 L124.848,19.37 Z M126,29 L126,20.306 L123.714,20.306 L123.714,29 L126,29 Z M131.4,29.216 C133.812,29.216 135.18,28.046 135.18,26.444 C135.18,22.934 130.014,24.014 130.014,22.736 C130.014,22.25 130.554,21.89 131.382,21.89 C132.444,21.89 133.434,22.358 133.956,22.898 L134.874,21.278 C134.01,20.594 132.84,20.09 131.382,20.09 C129.078,20.09 127.818,21.368 127.818,22.826 C127.818,26.246 132.966,25.076 132.966,26.498 C132.966,27.038 132.498,27.416 131.508,27.416 C130.428,27.416 129.15,26.822 128.502,26.21 L127.512,27.866 C128.43,28.712 129.888,29.216 131.4,29.216 L131.4,29.216 Z" fill="#000000"></path>
                        </g>
                    </g>
                    <path d="M202.55,26.636 L202.55,25.214 L199.328,25.214 L199.328,21.686 L197.762,21.686 L197.762,25.214 L194.522,25.214 L194.522,26.636 L197.762,26.636 L197.762,30.29 L199.328,30.29 L199.328,26.636 L202.55,26.636 Z" id="+" fill="#000000"></path>
                </g>
                <g id="MVP-+-Rectangle-11" transform="translate(439.000000, 84.000000)" sketch:type="MSShapeGroup">
                    <g id="MVP" transform="translate(0.000000, 40.000000)">
                        <rect id="Rectangle-5" stroke="#000000" stroke-width="2" x="0" y="0" width="180" height="45" rx="3"></rect>
                        <path d="M47.925,29.216 C50.553,29.216 52.083,27.758 52.929,26.264 L50.733,25.202 C50.229,26.174 49.149,26.948 47.925,26.948 C45.729,26.948 44.145,25.274 44.145,23.006 C44.145,20.738 45.729,19.064 47.925,19.064 C49.149,19.064 50.229,19.838 50.733,20.81 L52.929,19.73 C52.083,18.218 50.553,16.796 47.925,16.796 C44.307,16.796 41.517,19.298 41.517,23.006 C41.517,26.696 44.307,29.216 47.925,29.216 L47.925,29.216 Z M56.691,29 L56.691,23.258 C57.069,22.7 58.077,22.268 58.833,22.268 C59.103,22.268 59.301,22.286 59.463,22.322 L59.463,20.09 C58.383,20.09 57.321,20.72 56.691,21.476 L56.691,20.306 L54.405,20.306 L54.405,29 L56.691,29 Z M64.971,29.216 C66.321,29.216 67.689,28.802 68.553,28.01 L67.527,26.498 C66.969,27.038 65.961,27.344 65.223,27.344 C63.747,27.344 62.883,26.462 62.721,25.4 L69.183,25.4 L69.183,24.86 C69.183,22.034 67.437,20.09 64.827,20.09 C62.199,20.09 60.327,22.124 60.327,24.644 C60.327,27.434 62.325,29.216 64.971,29.216 L64.971,29.216 Z M66.987,23.816 L62.703,23.816 C62.793,22.952 63.405,21.962 64.827,21.962 C66.339,21.962 66.915,22.988 66.987,23.816 L66.987,23.816 Z M78.363,29 L78.363,23.384 C78.363,20.882 76.545,20.09 74.547,20.09 C73.179,20.09 71.811,20.504 70.749,21.458 L71.649,23.06 C72.369,22.394 73.233,22.034 74.151,22.034 C75.303,22.034 76.059,22.61 76.059,23.492 L76.059,24.59 C75.483,23.906 74.475,23.528 73.305,23.528 C71.919,23.528 70.299,24.284 70.299,26.336 C70.299,28.28 71.919,29.216 73.305,29.216 C74.439,29.216 75.465,28.802 76.059,28.082 L76.059,29 L78.363,29 Z M74.223,27.668 C73.323,27.668 72.585,27.2 72.585,26.372 C72.585,25.544 73.323,25.058 74.223,25.058 C74.961,25.058 75.681,25.328 76.059,25.832 L76.059,26.912 C75.681,27.416 74.961,27.668 74.223,27.668 L74.223,27.668 Z M83.529,29.216 C84.483,29.216 85.095,28.964 85.437,28.658 L84.951,26.912 C84.825,27.056 84.501,27.182 84.159,27.182 C83.655,27.182 83.367,26.768 83.367,26.21 L83.367,22.304 L85.131,22.304 L85.131,20.306 L83.367,20.306 L83.367,17.93 L81.081,17.93 L81.081,20.306 L79.641,20.306 L79.641,22.304 L81.081,22.304 L81.081,26.822 C81.081,28.388 81.927,29.216 83.529,29.216 L83.529,29.216 Z M90.783,29.216 C92.133,29.216 93.501,28.802 94.365,28.01 L93.339,26.498 C92.781,27.038 91.773,27.344 91.035,27.344 C89.559,27.344 88.695,26.462 88.533,25.4 L94.995,25.4 L94.995,24.86 C94.995,22.034 93.249,20.09 90.639,20.09 C88.011,20.09 86.139,22.124 86.139,24.644 C86.139,27.434 88.137,29.216 90.783,29.216 L90.783,29.216 Z M92.799,23.816 L88.515,23.816 C88.605,22.952 89.217,21.962 90.639,21.962 C92.151,21.962 92.727,22.988 92.799,23.816 L92.799,23.816 Z M114.345,29 L114.345,16.994 L110.745,16.994 L107.829,24.5 L104.913,16.994 L101.331,16.994 L101.331,29 L103.887,29 L103.887,20.342 L107.271,29 L108.387,29 L111.771,20.342 L111.771,29 L114.345,29 Z M123.291,29 L127.917,16.994 L125.019,16.994 L121.689,26.21 L118.359,16.994 L115.461,16.994 L120.087,29 L123.291,29 Z M131.589,29 L131.589,24.716 L134.649,24.716 C137.241,24.716 138.681,22.952 138.681,20.864 C138.681,18.758 137.259,16.994 134.649,16.994 L129.033,16.994 L129.033,29 L131.589,29 Z M134.289,22.466 L131.589,22.466 L131.589,19.244 L134.289,19.244 C135.297,19.244 136.071,19.856 136.071,20.864 C136.071,21.854 135.297,22.466 134.289,22.466 L134.289,22.466 Z" id="Create-MVP" fill="#000000"></path>
                    </g>
                    <path d="M61.8996564,5.51543325 L57.6739001,4.38314528 C57.1355272,4.23888868 56.587614,4.55200885 56.445775,5.08135935 L56.1750795,6.0916089 C56.0339892,6.61816473 56.3531242,7.16660505 56.8895599,7.31034257 L62.9993146,8.94744641 C63.2924459,9.0259907 63.5884054,8.96894363 63.8201079,8.81522924 C64.0581805,8.68877733 64.2462961,8.46644356 64.3220378,8.18377183 L65.9591416,2.07401714 C66.1033982,1.53564421 65.7902781,0.98773109 65.2609276,0.84589205 L64.250678,0.5751965 C63.7241222,0.43410629 63.1756819,0.753241272 63.0319443,1.28967699 L61.8996564,5.51543325 Z" id="Rectangle-11" fill="#000000"></path>
                </g>
                <g id="Testing-+-Rectangle-14-+-Rectangle-15" transform="translate(184.000000, 204.000000)" sketch:type="MSShapeGroup">
                    <g id="Testing" transform="translate(39.000000, 30.000000)">
                        <rect id="Rectangle-5" stroke="#000000" stroke-width="2" x="0" y="0" width="180" height="45" rx="3"></rect>
                        <path d="M67.113,29 L67.113,19.244 L70.605,19.244 L70.605,16.994 L61.029,16.994 L61.029,19.244 L64.539,19.244 L64.539,29 L67.113,29 Z M74.511,29.216 C75.861,29.216 77.229,28.802 78.093,28.01 L77.067,26.498 C76.509,27.038 75.501,27.344 74.763,27.344 C73.287,27.344 72.423,26.462 72.261,25.4 L78.723,25.4 L78.723,24.86 C78.723,22.034 76.977,20.09 74.367,20.09 C71.739,20.09 69.867,22.124 69.867,24.644 C69.867,27.434 71.865,29.216 74.511,29.216 L74.511,29.216 Z M76.527,23.816 L72.243,23.816 C72.333,22.952 72.945,21.962 74.367,21.962 C75.879,21.962 76.455,22.988 76.527,23.816 L76.527,23.816 Z M83.511,29.216 C85.923,29.216 87.291,28.046 87.291,26.444 C87.291,22.934 82.125,24.014 82.125,22.736 C82.125,22.25 82.665,21.89 83.493,21.89 C84.555,21.89 85.545,22.358 86.067,22.898 L86.985,21.278 C86.121,20.594 84.951,20.09 83.493,20.09 C81.189,20.09 79.929,21.368 79.929,22.826 C79.929,26.246 85.077,25.076 85.077,26.498 C85.077,27.038 84.609,27.416 83.619,27.416 C82.539,27.416 81.261,26.822 80.613,26.21 L79.623,27.866 C80.541,28.712 81.999,29.216 83.511,29.216 L83.511,29.216 Z M91.881,29.216 C92.835,29.216 93.447,28.964 93.789,28.658 L93.303,26.912 C93.177,27.056 92.853,27.182 92.511,27.182 C92.007,27.182 91.719,26.768 91.719,26.21 L91.719,22.304 L93.483,22.304 L93.483,20.306 L91.719,20.306 L91.719,17.93 L89.433,17.93 L89.433,20.306 L87.993,20.306 L87.993,22.304 L89.433,22.304 L89.433,26.822 C89.433,28.388 90.279,29.216 91.881,29.216 L91.881,29.216 Z M96.183,19.37 C96.939,19.37 97.551,18.758 97.551,18.002 C97.551,17.246 96.939,16.652 96.183,16.652 C95.445,16.652 94.833,17.246 94.833,18.002 C94.833,18.758 95.445,19.37 96.183,19.37 L96.183,19.37 Z M97.335,29 L97.335,20.306 L95.049,20.306 L95.049,29 L97.335,29 Z M107.775,29 L107.775,22.862 C107.775,21.17 106.857,20.09 104.931,20.09 C103.527,20.09 102.447,20.774 101.889,21.422 L101.889,20.306 L99.603,20.306 L99.603,29 L101.889,29 L101.889,23.132 C102.285,22.628 102.969,22.124 103.869,22.124 C104.841,22.124 105.471,22.538 105.471,23.744 L105.471,29 L107.775,29 Z M113.589,32.528 C115.731,32.528 118.287,31.718 118.287,28.424 L118.287,20.306 L116.001,20.306 L116.001,21.422 C115.299,20.522 114.345,20.09 113.301,20.09 C111.105,20.09 109.467,21.674 109.467,24.518 C109.467,27.416 111.141,28.928 113.301,28.928 C114.381,28.928 115.317,28.442 116.001,27.578 L116.001,28.424 C116.001,30.188 114.687,30.656 113.589,30.656 C112.509,30.656 111.573,30.35 110.871,29.594 L109.845,31.232 C110.943,32.186 112.113,32.528 113.589,32.528 L113.589,32.528 Z M114.039,26.912 C112.725,26.912 111.825,26.012 111.825,24.518 C111.825,23.024 112.725,22.124 114.039,22.124 C114.777,22.124 115.605,22.538 116.001,23.096 L116.001,25.922 C115.605,26.48 114.777,26.912 114.039,26.912 L114.039,26.912 Z" fill="#000000"></path>
                    </g>
                    <path d="M246.899656,7.51543325 L242.6739,6.38314528 C242.135527,6.23888868 241.587614,6.55200885 241.445775,7.08135935 L241.175079,8.0916089 C241.033989,8.61816473 241.353124,9.16660505 241.88956,9.31034257 L247.999315,10.9474464 C248.292446,11.0259907 248.588405,10.9689436 248.820108,10.8152292 C249.058181,10.6887773 249.246296,10.4664436 249.322038,10.1837718 L250.959142,4.07401714 C251.103398,3.53564421 250.790278,2.98773109 250.260928,2.84589205 L249.250678,2.5751965 C248.724122,2.43410629 248.175682,2.75324127 248.031944,3.28967699 L246.899656,7.51543325 Z" id="Rectangle-14" fill="#000000" transform="translate(246.068829, 6.763040) rotate(80.000000) translate(-246.068829, -6.763040) "></path>
                    <path d="M6.89965636,7.51543325 L2.6739001,6.38314528 C2.13552717,6.23888868 1.58761404,6.55200885 1.445775,7.08135935 L1.17507945,8.0916089 C1.03398924,8.61816473 1.35312423,9.16660505 1.88955995,9.31034257 L7.99931464,10.9474464 C8.29244592,11.0259907 8.58840543,10.9689436 8.82010788,10.8152292 C9.05818054,10.6887773 9.24629614,10.4664436 9.3220378,10.1837718 L10.9591416,4.07401714 C11.1033982,3.53564421 10.7902781,2.98773109 10.2609276,2.84589205 L9.25067801,2.5751965 C8.72412218,2.43410629 8.17568185,2.75324127 8.03194434,3.28967699 L6.89965636,7.51543325 Z" id="Rectangle-15" fill="#000000" transform="translate(6.068829, 6.763040) scale(1, -1) rotate(80.000000) translate(-6.068829, -6.763040) "></path>
                </g>
                <g id="Research-+-Rectangle-13" transform="translate(2.000000, 84.000000)" sketch:type="MSShapeGroup">
                    <g id="Research" transform="translate(0.000000, 39.000000)">
                        <rect id="Rectangle-5" stroke="#000000" stroke-width="2" x="0" y="0" width="180" height="45" rx="3"></rect>
                        <path d="M63.324,29 L60.606,24.428 C61.902,24.122 63.252,22.97 63.252,20.864 C63.252,18.632 61.704,16.994 59.202,16.994 L53.586,16.994 L53.586,29 L56.142,29 L56.142,24.734 L58.014,24.734 L60.372,29 L63.324,29 Z M58.842,22.484 L56.142,22.484 L56.142,19.244 L58.842,19.244 C59.85,19.244 60.624,19.856 60.624,20.846 C60.624,21.872 59.85,22.484 58.842,22.484 L58.842,22.484 Z M68.652,29.216 C70.002,29.216 71.37,28.802 72.234,28.01 L71.208,26.498 C70.65,27.038 69.642,27.344 68.904,27.344 C67.428,27.344 66.564,26.462 66.402,25.4 L72.864,25.4 L72.864,24.86 C72.864,22.034 71.118,20.09 68.508,20.09 C65.88,20.09 64.008,22.124 64.008,24.644 C64.008,27.434 66.006,29.216 68.652,29.216 L68.652,29.216 Z M70.668,23.816 L66.384,23.816 C66.474,22.952 67.086,21.962 68.508,21.962 C70.02,21.962 70.596,22.988 70.668,23.816 L70.668,23.816 Z M77.652,29.216 C80.064,29.216 81.432,28.046 81.432,26.444 C81.432,22.934 76.266,24.014 76.266,22.736 C76.266,22.25 76.806,21.89 77.634,21.89 C78.696,21.89 79.686,22.358 80.208,22.898 L81.126,21.278 C80.262,20.594 79.092,20.09 77.634,20.09 C75.33,20.09 74.07,21.368 74.07,22.826 C74.07,26.246 79.218,25.076 79.218,26.498 C79.218,27.038 78.75,27.416 77.76,27.416 C76.68,27.416 75.402,26.822 74.754,26.21 L73.764,27.866 C74.682,28.712 76.14,29.216 77.652,29.216 L77.652,29.216 Z M87.192,29.216 C88.542,29.216 89.91,28.802 90.774,28.01 L89.748,26.498 C89.19,27.038 88.182,27.344 87.444,27.344 C85.968,27.344 85.104,26.462 84.942,25.4 L91.404,25.4 L91.404,24.86 C91.404,22.034 89.658,20.09 87.048,20.09 C84.42,20.09 82.548,22.124 82.548,24.644 C82.548,27.434 84.546,29.216 87.192,29.216 L87.192,29.216 Z M89.208,23.816 L84.924,23.816 C85.014,22.952 85.626,21.962 87.048,21.962 C88.56,21.962 89.136,22.988 89.208,23.816 L89.208,23.816 Z M100.584,29 L100.584,23.384 C100.584,20.882 98.766,20.09 96.768,20.09 C95.4,20.09 94.032,20.504 92.97,21.458 L93.87,23.06 C94.59,22.394 95.454,22.034 96.372,22.034 C97.524,22.034 98.28,22.61 98.28,23.492 L98.28,24.59 C97.704,23.906 96.696,23.528 95.526,23.528 C94.14,23.528 92.52,24.284 92.52,26.336 C92.52,28.28 94.14,29.216 95.526,29.216 C96.66,29.216 97.686,28.802 98.28,28.082 L98.28,29 L100.584,29 Z M96.444,27.668 C95.544,27.668 94.806,27.2 94.806,26.372 C94.806,25.544 95.544,25.058 96.444,25.058 C97.182,25.058 97.902,25.328 98.28,25.832 L98.28,26.912 C97.902,27.416 97.182,27.668 96.444,27.668 L96.444,27.668 Z M105.12,29 L105.12,23.258 C105.498,22.7 106.506,22.268 107.262,22.268 C107.532,22.268 107.73,22.286 107.892,22.322 L107.892,20.09 C106.812,20.09 105.75,20.72 105.12,21.476 L105.12,20.306 L102.834,20.306 L102.834,29 L105.12,29 Z M113.364,29.216 C115.146,29.216 116.226,28.424 116.802,27.632 L115.308,26.228 C114.894,26.822 114.264,27.182 113.472,27.182 C112.086,27.182 111.114,26.156 111.114,24.644 C111.114,23.132 112.086,22.124 113.472,22.124 C114.264,22.124 114.894,22.448 115.308,23.06 L116.802,21.656 C116.226,20.864 115.146,20.09 113.364,20.09 C110.7,20.09 108.756,21.98 108.756,24.644 C108.756,27.326 110.7,29.216 113.364,29.216 L113.364,29.216 Z M126.468,29 L126.468,22.826 C126.468,21.134 125.55,20.09 123.642,20.09 C122.22,20.09 121.158,20.774 120.6,21.422 L120.6,16.994 L118.296,16.994 L118.296,29 L120.6,29 L120.6,23.132 C120.978,22.628 121.68,22.124 122.58,22.124 C123.552,22.124 124.182,22.502 124.182,23.708 L124.182,29 L126.468,29 Z" fill="#000000"></path>
                    </g>
                    <path d="M118.899656,5.51543325 L114.6739,4.38314528 C114.135527,4.23888868 113.587614,4.55200885 113.445775,5.08135935 L113.175079,6.0916089 C113.033989,6.61816473 113.353124,7.16660505 113.88956,7.31034257 L119.999315,8.94744641 C120.292446,9.0259907 120.588405,8.96894363 120.820108,8.81522924 C121.058181,8.68877733 121.246296,8.46644356 121.322038,8.18377183 L122.959142,2.07401714 C123.103398,1.53564421 122.790278,0.98773109 122.260928,0.84589205 L121.250678,0.5751965 C120.724122,0.43410629 120.175682,0.753241272 120.031944,1.28967699 L118.899656,5.51543325 Z" id="Rectangle-13" fill="#000000" transform="translate(118.068829, 4.763040) scale(1, -1) translate(-118.068829, -4.763040) "></path>
                </g>
                <path d="M278.133,151 L278.133,136.326 L275.009,136.326 L275.009,151 L278.133,151 Z M284.535,151.264 C285.701,151.264 286.449,150.956 286.867,150.582 L286.273,148.448 C286.119,148.624 285.723,148.778 285.305,148.778 C284.689,148.778 284.337,148.272 284.337,147.59 L284.337,142.816 L286.493,142.816 L286.493,140.374 L284.337,140.374 L284.337,137.47 L281.543,137.47 L281.543,140.374 L279.783,140.374 L279.783,142.816 L281.543,142.816 L281.543,148.338 C281.543,150.252 282.577,151.264 284.535,151.264 L284.535,151.264 Z M293.401,151.264 C295.051,151.264 296.723,150.758 297.779,149.79 L296.525,147.942 C295.843,148.602 294.611,148.976 293.709,148.976 C291.905,148.976 290.849,147.898 290.651,146.6 L298.549,146.6 L298.549,145.94 C298.549,142.486 296.415,140.11 293.225,140.11 C290.013,140.11 287.725,142.596 287.725,145.676 C287.725,149.086 290.167,151.264 293.401,151.264 L293.401,151.264 Z M295.865,144.664 L290.629,144.664 C290.739,143.608 291.487,142.398 293.225,142.398 C295.073,142.398 295.777,143.652 295.865,144.664 L295.865,144.664 Z M303.367,151 L303.367,143.982 C303.829,143.3 305.061,142.772 305.985,142.772 C306.315,142.772 306.557,142.794 306.755,142.838 L306.755,140.11 C305.435,140.11 304.137,140.88 303.367,141.804 L303.367,140.374 L300.573,140.374 L300.573,151 L303.367,151 Z M317.689,151 L317.689,144.136 C317.689,141.078 315.467,140.11 313.025,140.11 C311.353,140.11 309.681,140.616 308.383,141.782 L309.483,143.74 C310.363,142.926 311.419,142.486 312.541,142.486 C313.949,142.486 314.873,143.19 314.873,144.268 L314.873,145.61 C314.169,144.774 312.937,144.312 311.507,144.312 C309.813,144.312 307.833,145.236 307.833,147.744 C307.833,150.12 309.813,151.264 311.507,151.264 C312.893,151.264 314.147,150.758 314.873,149.878 L314.873,151 L317.689,151 Z M312.629,149.372 C311.529,149.372 310.627,148.8 310.627,147.788 C310.627,146.776 311.529,146.182 312.629,146.182 C313.531,146.182 314.411,146.512 314.873,147.128 L314.873,148.448 C314.411,149.064 313.531,149.372 312.629,149.372 L312.629,149.372 Z M324.003,151.264 C325.169,151.264 325.917,150.956 326.335,150.582 L325.741,148.448 C325.587,148.624 325.191,148.778 324.773,148.778 C324.157,148.778 323.805,148.272 323.805,147.59 L323.805,142.816 L325.961,142.816 L325.961,140.374 L323.805,140.374 L323.805,137.47 L321.011,137.47 L321.011,140.374 L319.251,140.374 L319.251,142.816 L321.011,142.816 L321.011,148.338 C321.011,150.252 322.045,151.264 324.003,151.264 L324.003,151.264 Z M329.261,139.23 C330.185,139.23 330.933,138.482 330.933,137.558 C330.933,136.634 330.185,135.908 329.261,135.908 C328.359,135.908 327.611,136.634 327.611,137.558 C327.611,138.482 328.359,139.23 329.261,139.23 L329.261,139.23 Z M330.669,151 L330.669,140.374 L327.875,140.374 L327.875,151 L330.669,151 Z M338.369,151.264 C341.889,151.264 344.001,148.69 344.001,145.676 C344.001,142.662 341.889,140.11 338.369,140.11 C334.871,140.11 332.759,142.662 332.759,145.676 C332.759,148.69 334.871,151.264 338.369,151.264 L338.369,151.264 Z M338.369,148.778 C336.631,148.778 335.663,147.348 335.663,145.676 C335.663,144.026 336.631,142.596 338.369,142.596 C340.129,142.596 341.097,144.026 341.097,145.676 C341.097,147.348 340.129,148.778 338.369,148.778 L338.369,148.778 Z M356.079,151 L356.079,143.498 C356.079,141.43 354.957,140.11 352.603,140.11 C350.887,140.11 349.567,140.946 348.885,141.738 L348.885,140.374 L346.091,140.374 L346.091,151 L348.885,151 L348.885,143.828 C349.369,143.212 350.205,142.596 351.305,142.596 C352.493,142.596 353.263,143.102 353.263,144.576 L353.263,151 L356.079,151 Z" id="Iteration" fill="#000000" sketch:type="MSShapeGroup"></path>
            </g>
        </g>
    </g>
</svg>